<svg width="10" height="9" viewBox="0 0 10 9" fill="none" xmlns="http://www.w3.org/2000/svg">
<path d="M0 1.3C0 0.858172 0.279822 0.5 0.625 0.5H9.375C9.72018 0.5 10 0.858172 10 1.3C10 1.74183 9.72018 2.1 9.375 2.1H0.625C0.279822 2.1 0 1.74183 0 1.3Z" fill="#3F3E3E"/>
<path d="M0 4.5C0 4.05817 0.279822 3.7 0.625 3.7H6.875C7.22018 3.7 7.5 4.05817 7.5 4.5C7.5 4.94183 7.22018 5.3 6.875 5.3H0.625C0.279822 5.3 0 4.94183 0 4.5Z" fill="#3F3E3E"/>
<path d="M0 7.7C0 7.25817 0.279822 6.9 0.625 6.9H4.375C4.72018 6.9 5 7.25817 5 7.7C5 8.14183 4.72018 8.5 4.375 8.5H0.625C0.279822 8.5 0 8.14183 0 7.7Z" fill="#3F3E3E"/>
</svg>
