<svg width="57" height="44" viewBox="0 0 57 44" fill="none" xmlns="http://www.w3.org/2000/svg">
<path d="M42.05 14.9516C42.05 13.8887 42.9193 13.0195 43.9821 13.0195H48.8381C49.901 13.0195 51.0658 13.6212 51.0658 14.9516" fill="#BB74A9"/>
<path d="M49.5152 21.4559H46.7228C46.031 21.4559 45.4663 20.8912 45.4663 20.1994C45.4663 19.509 46.031 18.9429 46.7228 18.9429H49.5152C50.207 18.9429 50.7717 19.5076 50.7717 20.1994C50.7717 20.8897 50.2055 21.4559 49.5152 21.4559Z" fill="#BB74A9"/>
<path d="M49.5152 21.5668H46.7228C45.9689 21.5668 45.3555 20.9533 45.3555 20.1994C45.3555 19.4455 45.9689 18.832 46.7228 18.832H49.5152C49.5758 18.832 49.6261 18.8823 49.6261 18.9429C49.6261 19.0035 49.5758 19.0538 49.5152 19.0538H46.7228C46.0916 19.0538 45.5772 19.5682 45.5772 20.1994C45.5772 20.8306 46.0916 21.345 46.7228 21.345H49.5152C49.5758 21.345 49.6261 21.3953 49.6261 21.4559C49.6261 21.5165 49.5758 21.5668 49.5152 21.5668Z" fill="#6A1857"/>
<path d="M50.0326 18.9428H45.7457C45.014 18.9428 44.4153 18.3441 44.4153 17.6124C44.4153 16.8807 45.014 16.282 45.7457 16.282H50.0326C50.7643 16.282 51.363 16.8807 51.363 17.6124C51.363 18.3441 50.7643 18.9428 50.0326 18.9428Z" fill="#BB74A9"/>
<path d="M50.0326 19.0537H45.7457C44.9504 19.0537 44.3044 18.4077 44.3044 17.6124C44.3044 16.8171 44.9504 16.1711 45.7457 16.1711H47.8153C47.8759 16.1711 47.9261 16.2214 47.9261 16.282C47.9261 16.3426 47.8759 16.3929 47.8153 16.3929H45.7457C45.0731 16.3929 44.5262 16.9398 44.5262 17.6124C44.5262 18.285 45.0731 18.832 45.7457 18.832H50.0326C50.0932 18.832 50.1435 18.8822 50.1435 18.9428C50.1435 19.0034 50.0932 19.0537 50.0326 19.0537Z" fill="#6A1857"/>
<path d="M49.7368 16.2819H46.1891C45.4573 16.2819 44.8586 15.6832 44.8586 14.9515C44.8586 14.2198 45.4573 13.6211 46.1891 13.6211H49.7368C50.4686 13.6211 51.0672 14.2198 51.0672 14.9515C51.0672 15.6832 50.4686 16.2819 49.7368 16.2819Z" fill="#BB74A9"/>
<path d="M49.8847 16.3928H46.1891C45.3938 16.3928 44.7478 15.7468 44.7478 14.9515C44.7478 14.1562 45.3938 13.5103 46.1891 13.5103H49.2978C49.3584 13.5103 49.4087 13.5605 49.4087 13.6211C49.4087 13.6817 49.3584 13.732 49.2978 13.732H46.1891C45.5165 13.732 44.9695 14.2789 44.9695 14.9515C44.9695 15.6241 45.5165 16.1711 46.1891 16.1711H49.8847C49.9453 16.1711 49.9956 16.2213 49.9956 16.282C49.9956 16.3426 49.9453 16.3928 49.8847 16.3928Z" fill="#6A1857"/>
<path fill-rule="evenodd" clip-rule="evenodd" d="M12.1482 41.1401C15.3974 42.0906 18.8846 42.3922 22.1958 42.4868C27.6357 42.6435 33.2368 42.166 38.3752 40.2679C42.968 38.5724 46.6178 35.304 50.0222 31.8893C54.1051 27.7945 56.4718 23.1189 56.4998 17.2665C56.5191 13.1511 54.7555 9.0963 51.8877 6.14425C47.7014 1.83518 41.5016 0.195815 35.636 0.896501C32.7017 1.24684 29.8235 2.16335 27.247 3.61351C24.2387 5.30609 21.9903 7.9817 19.2142 9.98915C16.1912 12.1755 12.6242 13.4571 9.34844 15.1926C5.05859 17.4646 0.918039 20.9621 0.536653 26.1315C0.162659 31.1901 2.67567 36.089 6.933 38.8207C8.54428 39.8555 10.3078 40.602 12.1482 41.1401Z" fill="#F8EDED"/>
<path fill-rule="evenodd" clip-rule="evenodd" d="M28.1545 24.7079C19.4891 19.611 10.4895 37.7357 9.35425 40.1201C10.2589 40.5236 11.1932 40.8607 12.1496 41.1401C15.3988 42.0906 18.8859 42.3921 22.1972 42.4867C24.6038 42.5562 27.0429 42.5 29.4583 42.2532L31.3017 40.3758C34.2153 27.5166 28.1545 24.7079 28.1545 24.7079Z" fill="#F7ACB8"/>
<path d="M42.05 14.9516C42.05 13.8887 42.9193 13.0195 43.9821 13.0195H48.8381C49.901 13.0195 51.0658 13.6212 51.0658 14.9516" fill="#BB74A9"/>
<path fill-rule="evenodd" clip-rule="evenodd" d="M37.0239 38.16L48.7242 36.3344C49.5742 36.2294 50.2985 35.6677 50.6089 34.8694L53.833 27.0096C54.0577 26.4627 53.6009 25.8773 53.017 25.966C52.0961 26.1064 50.7701 27.0126 49.5875 30.4732L49.1144 32.1288C49.0464 32.3683 48.8321 32.5353 48.5823 32.5427C47.7219 32.5678 45.6539 32.7556 43.642 33.8805" fill="#BB74A9"/>
<path d="M32.8288 14.9264C32.6736 14.9264 32.5184 14.8333 32.4873 14.6781L30.9958 10.3661C30.468 9.0327 31.0268 7.54411 32.3011 6.9543C33.6063 6.36448 35.6877 6.737 37.2724 9.83834V9.86939L39.2296 14.3987C39.3227 14.585 39.2296 14.8023 39.0433 14.8954C38.857 14.9885 38.6397 14.8954 38.5466 14.7091L36.5894 10.1798C35.7498 8.53601 34.1976 6.89221 32.5819 7.63576C31.7733 8.00828 31.1835 9.00018 31.6492 10.0867V10.1177L33.1407 14.4298C33.2028 14.616 33.1097 14.8333 32.9234 14.8954C32.8924 14.9264 32.8613 14.9264 32.8288 14.9264Z" fill="#8A1332"/>
<path d="M48.2409 33.5359H32.6736C31.6788 33.5359 30.1872 32.6977 30.2183 31.7058L32.2996 14.9869C32.3307 14.0261 32.7342 12.6292 33.698 12.6292H46.779C47.2136 12.6292 47.6171 12.9706 47.6497 13.4052L48.9239 30.2793L48.986 32.7303C48.9875 33.1959 48.6445 33.5359 48.2409 33.5359Z" fill="#FF2928"/>
<path d="M32.6737 33.5361H26.5833C26.3039 33.5361 26.0556 33.2878 26.0866 33.0084C26.1177 32.4496 26.8627 17.5608 27.1746 13.095C27.2056 12.8467 27.3919 12.6604 27.6402 12.6604H33.1393C33.3566 12.6604 33.5429 12.8156 33.5739 13.064C33.5739 13.064 33.3876 31.9544 33.3876 32.8221C33.3891 33.2271 33.0787 33.5361 32.6737 33.5361Z" fill="#A30C2E"/>
<path fill-rule="evenodd" clip-rule="evenodd" d="M38.8261 23.0833C40.2246 23.1144 41.2179 21.8741 41.2179 20.8497C41.2179 20.1047 40.535 19.7647 39.8506 19.7647C38.328 19.7336 37.4588 21.067 37.4588 21.9983C37.4277 22.7108 38.1432 23.0833 38.8261 23.0833ZM44.9786 20.9118C44.9475 21.9347 43.9837 23.1765 42.5868 23.1454C41.9038 23.1454 41.1884 22.804 41.2194 22.0604C41.2505 21.1306 42.0901 19.7957 43.6112 19.8268C44.2956 19.8268 45.0096 20.1683 44.9786 20.9118ZM39.79 26.433C41.0021 26.5262 42.1507 26.1847 43.0214 25.5032L43.3629 26.4641L43.8906 24.0442L41.5609 23.9821L42.337 24.5719C41.623 25.2238 40.3487 25.657 39.3228 25.5328C38.2659 25.4086 37.4277 24.6946 37.0863 23.92H37.0242C37.2104 25.0997 38.2363 26.3089 39.79 26.433Z" fill="white"/>
<path d="M42.337 14.9264C42.306 14.9264 42.2439 14.9264 42.2128 14.8954C42.0266 14.8333 41.9024 14.616 41.9955 14.4298L43.4871 10.0867C43.9527 8.97062 43.3629 8.00828 42.5543 7.63576C40.9386 6.89073 39.385 8.53601 38.5453 10.1798L36.5881 14.7091C36.495 14.8954 36.2777 14.9885 36.0914 14.8954C35.9052 14.8023 35.8121 14.585 35.9052 14.3987L37.8624 9.83834C39.4471 6.737 41.5284 6.36448 42.8337 6.9543C44.1079 7.54411 44.6978 9.0327 44.139 10.3661L42.6474 14.6781C42.6489 14.8333 42.4937 14.9264 42.337 14.9264Z" fill="#8A1332"/>
<path fill-rule="evenodd" clip-rule="evenodd" d="M32.5109 15.0106C32.5641 19.2546 28.9069 24.5733 23.6385 25.1233C21.9784 25.2962 19.9651 24.9858 18.9332 23.5253C17.3441 21.2798 18.7795 17.8074 20.1691 15.8207C21.8114 13.4732 24.3835 11.8575 27.1892 11.3135C29.9757 10.774 32.706 11.9595 32.5109 15.0106Z" fill="#BB74A9"/>
<path fill-rule="evenodd" clip-rule="evenodd" d="M27.4614 11.2677C27.3712 11.2825 27.2795 11.2973 27.1894 11.315C25.6357 11.6166 24.1545 12.2463 22.8625 13.1466C24.0333 14.0601 26.8405 15.6359 31.1096 14.2124C31.1096 14.2124 30.7918 17.9109 30.4075 21.0123C32.1237 20.1017 33.2531 18.7979 33.3181 17.4645C33.6241 11.2559 30.1503 10.8538 27.4614 11.2677Z" fill="#6A1857"/>
<path fill-rule="evenodd" clip-rule="evenodd" d="M33.4466 17.095C34.0527 17.5769 33.9048 18.7713 33.1169 19.7617C32.329 20.7521 30.224 21.6036 29.6327 20.5688C29.2484 19.8962 30.1338 19.0034 30.9217 18.013C31.7097 17.024 32.839 16.6116 33.4466 17.095Z" fill="#BB74A9"/>
<path fill-rule="evenodd" clip-rule="evenodd" d="M28.746 28.4036L31.9981 35.2035C31.0254 35.2035 43.6762 35.4991 43.6762 35.4991C29.1895 46.5859 20.4516 46.0463 19.1374 32.247C18.5461 26.0384 21.1227 22.6384 23.5721 22.6384C26.0216 22.6384 28.0069 26.6297 28.746 28.4036Z" fill="#BB74A9"/>
<path fill-rule="evenodd" clip-rule="evenodd" d="M29.2441 33.4297H43.9718L43.0849 34.9079L34.5111 38.8992" fill="#BB74A9"/>
<path d="M25.0237 20.6546C24.5669 20.6546 24.0554 20.5393 23.4892 20.2614C23.4479 20.2407 23.4183 20.2259 23.3976 20.2185C23.3281 20.2067 23.2749 20.1461 23.2749 20.0722C23.2749 19.9909 23.3414 19.9243 23.4227 19.9243C23.473 19.9243 23.5114 19.9436 23.6179 19.9953C25.0843 20.7108 26.3201 20.3678 27.2928 18.9753C27.3401 18.9088 27.4317 18.8925 27.4982 18.9383C27.5648 18.9857 27.581 19.0773 27.5352 19.1438C27.0089 19.9022 26.19 20.6546 25.0237 20.6546Z" fill="#C8002D"/>
<path fill-rule="evenodd" clip-rule="evenodd" d="M25.1242 19.4603C25.3991 19.5815 25.6416 19.8298 25.7657 20.0457C25.6416 19.682 25.7894 19.2385 26.1013 19.1898C27.0193 19.0449 27.1361 20.8823 26.7222 21.2519C26.5374 21.4175 26.1294 21.379 25.9017 21.3495C25.4509 21.2903 25.003 21.1011 24.6186 20.8616C24.2875 20.6547 23.9372 20.2955 24.0525 19.8284C24.1633 19.3864 24.7724 19.3051 25.1242 19.4603Z" fill="#C8002D"/>
<path d="M26.252 21.4868C26.1249 21.4868 25.9963 21.4735 25.8869 21.4588C25.4538 21.4011 24.9955 21.2267 24.5594 20.9547C24.0642 20.6442 23.8395 20.2244 23.9445 19.8002C23.9903 19.6139 24.1145 19.4676 24.3007 19.3759C24.5565 19.2503 24.9039 19.2443 25.167 19.3597C25.34 19.4365 25.4937 19.5533 25.6149 19.676C25.6282 19.5533 25.6652 19.435 25.7243 19.3375C25.81 19.1956 25.9372 19.1039 26.0835 19.0803C26.4235 19.0285 26.7073 19.2015 26.8832 19.574C27.1552 20.149 27.1094 21.0537 26.7945 21.3346C26.663 21.4514 26.4575 21.4868 26.252 21.4868ZM24.7546 19.4986C24.6274 19.4986 24.5003 19.5237 24.3998 19.574C24.2712 19.6376 24.1914 19.7307 24.1603 19.8534C24.0494 20.2969 24.4367 20.6162 24.6777 20.7655C25.0872 21.0212 25.5144 21.1838 25.9165 21.237C26.3865 21.2991 26.5743 21.2341 26.6482 21.1675C26.867 20.9724 26.9261 20.1786 26.6837 19.6671C26.5492 19.3848 26.3599 19.2591 26.119 19.2976C26.017 19.3138 25.9519 19.3892 25.9165 19.4498C25.8248 19.6021 25.8071 19.8209 25.8721 20.0086L25.6711 20.1002C25.5632 19.914 25.34 19.6745 25.0813 19.5607C24.9837 19.5193 24.8699 19.4986 24.7546 19.4986Z" fill="#C8002D"/>
<path d="M25.3547 17.5874C25.3443 17.5874 25.334 17.5859 25.3236 17.5844C25.2231 17.5681 25.1551 17.4721 25.1713 17.3715C25.3591 16.2466 25.8188 15.6272 26.4663 15.6257H26.4678C26.7797 15.6257 27.0871 15.8223 27.2719 16.1372C27.4212 16.3915 27.4759 16.6768 27.5232 16.9695C27.5395 17.07 27.4715 17.1646 27.371 17.1808C27.2704 17.1956 27.1758 17.1291 27.1596 17.0286C27.1167 16.761 27.0709 16.523 26.9541 16.3235C26.8373 16.1239 26.6466 15.9953 26.4678 15.9953C25.8676 15.9968 25.6266 16.897 25.5365 17.4336C25.5217 17.5238 25.4433 17.5874 25.3547 17.5874Z" fill="#6A1857"/>
<path d="M24.1632 17.6494C24.147 17.6494 24.1292 17.6465 24.113 17.642C24.0154 17.614 23.9578 17.512 23.9859 17.4129C24.2549 16.4713 24.0006 16.0485 23.8898 15.9746C23.77 15.8948 23.6399 15.88 23.4921 15.9317C23.1566 16.0455 22.818 16.4654 22.7116 16.7847C22.6791 16.8808 22.5741 16.934 22.4781 16.9014C22.3805 16.8689 22.3288 16.764 22.3613 16.6679C22.4973 16.2569 22.9141 15.7396 23.3724 15.5829C23.6296 15.4942 23.8794 15.5252 24.0952 15.6686C24.3362 15.8297 24.6585 16.4003 24.3406 17.5164C24.317 17.5962 24.2431 17.6494 24.1632 17.6494Z" fill="#6A1857"/>
<path fill-rule="evenodd" clip-rule="evenodd" d="M48.1241 36.1496C48.9623 36.3284 49.83 36.0343 50.3858 35.3809L55.4636 29.5522C55.8198 29.1427 55.6173 28.4997 55.0896 28.3711C54.1893 28.1508 52.6076 28.4879 50.269 31.4857L49.0983 33.1547C49.0584 33.2123 48.9918 33.2463 48.9209 33.2448C48.4301 33.2315 46.4286 33.2094 45.0435 33.712" fill="#BB74A9"/>
<path fill-rule="evenodd" clip-rule="evenodd" d="M40.2761 34.6121C40.2761 34.6121 45.8757 28.306 45.8772 28.306C46.226 27.9142 46.9297 27.6969 47.3554 28.1123C47.6289 28.3784 47.6215 28.8677 47.5919 29.2239C47.5565 29.6408 47.453 30.0518 47.3258 30.4479C46.9045 31.7517 46.2053 32.9639 45.4544 34.1021C45.4396 34.1243 45.4248 34.1465 45.4101 34.1686" fill="#BB74A9"/>
<path d="M30.5227 3.18926C30.3453 2.77683 29.9861 2.46197 29.5367 2.32449C29.0829 2.18554 28.6039 2.24762 28.2211 2.49301C27.8766 2.71475 27.5972 3.07248 27.4361 3.4923C26.6645 3.0237 26.054 3.09613 25.6667 3.24691C24.966 3.52186 24.5846 4.18855 24.5003 4.56846C24.085 6.43104 25.3799 7.80728 28.4591 8.77701C28.4738 8.78144 28.4886 8.7844 28.5034 8.7844C28.5448 8.7844 28.5847 8.76666 28.6128 8.73562C30.1945 7.00016 31.0696 4.46055 30.5227 3.18926Z" fill="#FF2928"/>
<path d="M31.6788 34.6492C31.6374 34.6492 31.5975 34.6255 31.5783 34.5856L28.644 28.4509C28.0852 27.1087 26.0733 22.7493 23.5707 22.7493C22.4516 22.7493 21.3459 23.4884 20.5358 24.7789C20.5033 24.8307 20.4353 24.8469 20.3836 24.8144C20.3318 24.7819 20.3156 24.7139 20.3481 24.6622C21.1981 23.3066 22.3733 22.5276 23.5707 22.5276C26.2108 22.5276 28.2759 26.9919 28.8465 28.3607L31.7778 34.491C31.8044 34.5457 31.7808 34.6122 31.7261 34.6388C31.7113 34.6462 31.6951 34.6492 31.6788 34.6492Z" fill="#6A1857"/>
<path d="M49.5152 21.4559H46.7228C46.031 21.4559 45.4663 20.8912 45.4663 20.1994C45.4663 19.509 46.031 18.9429 46.7228 18.9429H49.5152C50.207 18.9429 50.7717 19.5076 50.7717 20.1994C50.7717 20.8897 50.2055 21.4559 49.5152 21.4559Z" fill="#BB74A9"/>
<path d="M48.2602 21.5668H46.7214C45.9675 21.5668 45.354 20.9533 45.354 20.1994C45.354 19.4455 45.9675 18.832 46.7214 18.832H49.5138C49.5744 18.832 49.6246 18.8823 49.6246 18.9429C49.6246 19.0035 49.5744 19.0538 49.5138 19.0538H46.7214C46.0902 19.0538 45.5757 19.5682 45.5757 20.1994C45.5757 20.8306 46.0902 21.345 46.7214 21.345H48.2602C48.3208 21.345 48.3711 21.3953 48.3711 21.4559C48.3711 21.5165 48.3223 21.5668 48.2602 21.5668Z" fill="#6A1857"/>
<path d="M50.0326 18.9428H45.7457C45.014 18.9428 44.4153 18.3441 44.4153 17.6124C44.4153 16.8807 45.014 16.282 45.7457 16.282H50.0326C50.7643 16.282 51.363 16.8807 51.363 17.6124C51.363 18.3441 50.7643 18.9428 50.0326 18.9428Z" fill="#BB74A9"/>
<path d="M50.0326 19.0537H45.7457C44.9504 19.0537 44.3044 18.4077 44.3044 17.6124C44.3044 16.8171 44.9504 16.1711 45.7457 16.1711H47.8153C47.8759 16.1711 47.9261 16.2214 47.9261 16.282C47.9261 16.3426 47.8759 16.3929 47.8153 16.3929H45.7457C45.0731 16.3929 44.5262 16.9398 44.5262 17.6124C44.5262 18.285 45.0731 18.832 45.7457 18.832H50.0326C50.0932 18.832 50.1435 18.8822 50.1435 18.9428C50.1435 19.0034 50.0932 19.0537 50.0326 19.0537Z" fill="#6A1857"/>
<path d="M49.7368 16.2819H46.1891C45.4573 16.2819 44.8586 15.6832 44.8586 14.9515C44.8586 14.2198 45.4573 13.6211 46.1891 13.6211H49.7368C50.4686 13.6211 51.0672 14.2198 51.0672 14.9515C51.0672 15.6832 50.4686 16.2819 49.7368 16.2819Z" fill="#BB74A9"/>
<path d="M49.8847 16.3928H46.1891C45.3938 16.3928 44.7478 15.7468 44.7478 14.9515C44.7478 14.1562 45.3938 13.5103 46.1891 13.5103H49.2978C49.3584 13.5103 49.4087 13.5605 49.4087 13.6211C49.4087 13.6817 49.3584 13.732 49.2978 13.732H46.1891C45.5165 13.732 44.9695 14.2789 44.9695 14.9515C44.9695 15.6241 45.5165 16.1711 46.1891 16.1711H49.8847C49.9453 16.1711 49.9956 16.2213 49.9956 16.282C49.9956 16.3426 49.9453 16.3928 49.8847 16.3928Z" fill="#6A1857"/>
<path d="M30.9766 20.9858C30.9248 20.8764 30.8184 20.8084 30.6972 20.8069C30.6972 20.8069 30.6957 20.8069 30.6942 20.8069C30.5745 20.8069 30.4681 20.8734 30.4163 20.9813C29.9359 21.9658 28.8184 24.4123 28.8184 25.8447C28.8184 26.8825 29.6624 27.725 30.6987 27.725C31.7349 27.725 32.579 26.881 32.579 25.8447C32.5805 24.532 31.4585 22.0087 30.9766 20.9858Z" fill="#FFD200"/>
<path d="M45.8254 33.6012C45.7737 33.6012 45.7278 33.5657 45.7175 33.5139C45.7042 33.4533 45.7426 33.3957 45.8017 33.3824C47.1307 33.0941 48.6547 33.1252 48.9755 33.1355L50.1773 31.4222C51.1944 30.1184 52.1596 29.2004 53.0495 28.689C53.1028 28.6579 53.1708 28.6771 53.2003 28.7304C53.2314 28.7836 53.2122 28.8516 53.1589 28.8811C52.2942 29.3778 51.351 30.2781 50.3547 31.5538L49.0864 33.3617L49.0258 33.3587C49.008 33.3573 47.3066 33.2819 45.8476 33.5982C45.8416 33.5997 45.8328 33.6012 45.8254 33.6012Z" fill="#6A1857"/>
</svg>
